<svg width="24" height="24" viewBox="0 0 24 24" fill="none" xmlns="http://www.w3.org/2000/svg">
  <path d="M14.47 2.47a1 1 0 0 1 1.41 0l5.65 5.65a1 1 0 0 1-1.41 1.41L14.47 3.88a1 1 0 0 1 0-1.41Z" fill="currentColor"/>
  <path d="M12.63 8.13a1 1 0 0 1 1.41 0l1.83 1.83a1 1 0 0 1 0 1.41l-1.3 1.3-3.24-3.24 1.3-1.3Z" fill="currentColor" opacity="0.75"/>
  <path d="M5.32 11.09a2 2 0 0 1 1.06-1.19l4.78-2.22a2 2 0 0 1 2.21.44l2.62 2.62a2 2 0 0 1 .44 2.21l-2.22 4.78a2 2 0 0 1-1.19 1.06l-5.66 2.41a1.75 1.75 0 0 1-2.32-2.32l2.41-5.66Z" fill="currentColor"/>
  <path d="M7.93 15.46a.75.75 0 0 1 .95.47l.72 2.16a.75.75 0 0 1-1.42.47l-.72-2.16a.75.75 0 0 1 .47-.95Z" fill="currentColor" opacity="0.65"/>
  <path d="M10.78 14.5a.75.75 0 0 1 .95.47l.72 2.16a.75.75 0 1 1-1.42.47l-.72-2.16a.75.75 0 0 1 .47-.94Z" fill="currentColor" opacity="0.65"/>
  <path d="M6.25 20.75c0-.69.56-1.25 1.25-1.25h9c.69 0 1.25.56 1.25 1.25s-.56 1.25-1.25 1.25h-9a1.25 1.25 0 0 1-1.25-1.25Z" fill="currentColor"/>
  <path d="M4.25 7.5a.75.75 0 0 1 .75-.75h.5a.75.75 0 0 1 0 1.5h-.5a.75.75 0 0 1-.75-.75Z" fill="currentColor" opacity="0.45"/>
</svg>
